<svg width="23" height="23" fill="none" xmlns="http://www.w3.org/2000/svg"><path fill-rule="evenodd" clip-rule="evenodd" d="M11.42 21.172c5.496 0 9.95-4.455 9.95-9.95 0-5.494-4.454-9.949-9.95-9.949-5.494 0-9.948 4.455-9.948 9.95 0 5.494 4.454 9.949 9.949 9.949zm0 1.105c6.106 0 11.055-4.949 11.055-11.054 0-6.106-4.949-11.055-11.054-11.055C5.315.168.366 5.118.366 11.223c0 6.105 4.95 11.054 11.055 11.054z" fill="#fff"/><path d="M4.788 17.65c0-.57.427-1.053.995-1.116 4.264-.472 7.03-.43 11.286.01a1.1 1.1 0 01.612 1.92c-5.022 4.377-7.891 4.317-12.54.004a1.116 1.116 0 01-.353-.817z" fill="#fff"/><path fill-rule="evenodd" clip-rule="evenodd" d="M17.012 17.095c-4.222-.437-6.948-.478-11.169-.011a.568.568 0 00-.326.98c2.304 2.136 4.05 3.102 5.756 3.108 1.712.006 3.552-.952 6.045-3.124a.547.547 0 00-.306-.953zm-11.29-1.11c4.309-.477 7.116-.434 11.404.01a1.653 1.653 0 01.918 2.886c-2.528 2.204-4.634 3.405-6.774 3.396-2.147-.007-4.16-1.228-6.504-3.403a1.668 1.668 0 01-.53-1.223 1.674 1.674 0 011.486-1.666z" fill="#fff"/><path d="M15.842 9.012a4.422 4.422 0 11-8.843 0 4.422 4.422 0 018.843 0z" fill="#fff"/><path fill-rule="evenodd" clip-rule="evenodd" d="M11.42 12.328a3.316 3.316 0 100-6.633 3.316 3.316 0 000 6.633zm0 1.106a4.421 4.421 0 10.001-8.843 4.421 4.421 0 000 8.843z" fill="#fff"/></svg>