<svg width="266" height="54" fill="none" xmlns="http://www.w3.org/2000/svg"><g clip-path="url(#clip0_2_434)" fill="#fff" fill-opacity=".5"><path d="M16.464 22.297l10.322-10.304 10.327 10.31 6.006-5.996L26.786 0 10.458 16.301l6.006 5.996zm-4.241 4.233l-6.006-5.996L.211 26.53l6.006 5.996 6.006-5.996zm4.241 4.235l10.322 10.304 10.326-10.31 6.01 5.993-.003.004-16.333 16.306-16.328-16.3-.008-.01 6.014-5.987zm30.891 1.765l6.006-5.997-6.005-5.996-6.007 5.996 6.006 5.996z"/><path d="M32.878 26.528h.002l-6.094-6.085-4.504 4.497-.518.517-1.067 1.065-.009.009.009.009 6.089 6.078 6.094-6.084.003-.003-.005-.003zm29.846-13.671h13.062c3.242 0 5.694.831 7.355 2.492 1.286 1.287 1.929 2.882 1.929 4.784v.08c0 .804-.1 1.515-.3 2.13a6.62 6.62 0 01-.8 1.669c-.333.496-.72.931-1.16 1.306-.44.375-.914.697-1.42.965 1.63.617 2.912 1.454 3.847 2.512.935 1.06 1.403 2.526 1.403 4.402v.08c0 1.287-.247 2.412-.743 3.377a6.563 6.563 0 01-2.13 2.412c-.926.643-2.038 1.125-3.337 1.447-1.3.322-2.74.482-4.32.482H62.723V12.857zM74.48 24.233c1.369 0 2.456-.234 3.26-.703.806-.47 1.209-1.227 1.209-2.271v-.08c0-.938-.35-1.655-1.047-2.151-.699-.496-1.705-.744-3.02-.744h-6.12v5.949h5.718zm1.65 11.336c1.37 0 2.442-.247 3.222-.744.778-.495 1.167-1.266 1.167-2.311v-.08c0-.938-.362-1.682-1.087-2.231-.725-.55-1.892-.824-3.503-.824h-7.167v6.19h7.368zm18.29-22.712h6.201v28.139H94.42V12.857zm15.593 0h5.716l13.207 17.326V12.857h6.12v28.139h-5.274l-13.65-17.888v17.888h-6.119V12.857zm43.816-.2h5.717l12.08 28.339h-6.483l-2.577-6.31h-11.918l-2.577 6.31h-6.322l12.08-28.34zm6.523 16.56l-3.745-9.124-3.744 9.125h7.489zm17.968-16.36h5.717l13.206 17.326V12.857h6.12v28.139h-5.274L184.44 23.108v17.888h-6.12V12.857zm47.359 28.621c-2.068 0-3.986-.376-5.758-1.125-1.772-.75-3.302-1.776-4.59-3.075-1.289-1.3-2.296-2.834-3.02-4.603-.724-1.77-1.087-3.658-1.087-5.668v-.08c0-2.01.363-3.892 1.087-5.648a14.513 14.513 0 013.02-4.623c1.288-1.326 2.832-2.372 4.63-3.135 1.798-.764 3.785-1.146 5.96-1.146 1.314 0 2.515.108 3.602.322a15.13 15.13 0 012.96.884c.886.376 1.704.831 2.457 1.367.75.536 1.448 1.125 2.093 1.769l-3.945 4.542c-1.102-.991-2.222-1.77-3.363-2.332-1.141-.562-2.423-.844-3.845-.844-1.181 0-2.275.228-3.281.684a7.768 7.768 0 00-2.598 1.889 8.823 8.823 0 00-1.691 2.793 9.49 9.49 0 00-.603 3.397v.08c0 1.206.201 2.346.603 3.417a8.934 8.934 0 001.671 2.814 7.786 7.786 0 002.577 1.91c1.007.469 2.114.703 3.322.703 1.611 0 2.972-.295 4.086-.885 1.114-.589 2.222-1.393 3.322-2.412l3.946 3.98a20.392 20.392 0 01-2.255 2.09 13.366 13.366 0 01-2.557 1.589c-.925.441-1.94.777-3.039 1.004-1.102.228-2.336.342-3.704.342zm18.853-28.621h21.219v5.508h-15.099v5.708h13.287v5.507h-13.287v5.909h15.301v5.507h-21.421V12.857z"/></g><defs><clipPath id="clip0_2_434"><path fill="#fff" transform="translate(.44)" d="M0 0h265.31v53.062H0z"/></clipPath></defs></svg>